<?xml version="1.0" encoding="UTF-8" standalone="no"?>
<svg
   xmlns:dc="http://purl.org/dc/elements/1.1/"
   xmlns:cc="http://creativecommons.org/ns#"
   xmlns:rdf="http://www.w3.org/1999/02/22-rdf-syntax-ns#"
   xmlns:svg="http://www.w3.org/2000/svg"
   xmlns="http://www.w3.org/2000/svg"
   xmlns:sodipodi="http://sodipodi.sourceforge.net/DTD/sodipodi-0.dtd"
   xmlns:inkscape="http://www.inkscape.org/namespaces/inkscape"
   version="1.1"
   x="0px"
   y="0px"
   viewBox="0 0 800 600"
   style="enable-background:new 0 0 800 600;"
   xml:space="preserve"
   id="svg36"
   sodipodi:docname="map.svg"
   inkscape:version="1.0.1 (3bc2e813f5, 2020-09-07)"><metadata
   id="metadata42"><rdf:RDF><cc:Work
       rdf:about=""><dc:format>image/svg+xml</dc:format><dc:type
         rdf:resource="http://purl.org/dc/dcmitype/StillImage" /><dc:title></dc:title></cc:Work></rdf:RDF></metadata><defs
   id="defs40">
	

</defs><sodipodi:namedview
   pagecolor="#ffffff"
   bordercolor="#666666"
   borderopacity="1"
   objecttolerance="10"
   gridtolerance="10"
   guidetolerance="10"
   id="namedview38"
   showgrid="false"
   />

<path
   class="st0"
   d="m 307.14,122.481 -0.065,0.46 -0.303,1.008 -0.289,0.539 -0.402,0.471 -0.534,0.334 -3.302,0.287 -0.45,0.344 -0.339,0.589 -0.212,0.89 -0.204,2.672 -0.358,1.296 -0.553,1.114 -0.705,0.871 -0.82,0.565 -0.899,0.203 -0.935,-0.222 -5.714,-5.917 -0.762,-0.351 -0.611,0.18 -0.416,0.843 -1.231,7.124 -1.385,1.293 -0.479,0.665 -0.387,0.77 -0.224,0.863 0.058,1.823 -0.149,0.733 -0.301,0.61 -2.47,2.3 -0.459,0.621 -2.003,5.196 -1.539,0.969 -0.505,0.545 -0.38,0.666 -0.168,0.787 0.13,0.908 6.156,19.35 7.799,6.439 0.846,3.937 -0.746,0.524 -0.406,0.611 -0.322,0.665 -0.154,0.59 -0.118,0.784 v 1.049 l -0.137,1.396 -0.373,1.33 -0.171,0.429 -0.168,0.341 -0.695,0.514 -0.89,0.473 -3.189,2.662 -0.95,0.557 -0.645,0.275 -0.577,-0.053 -0.577,-0.154 -1.448,-0.661 -0.883,-0.16 -0.406,0.337 -0.103,0.681 0.154,0.691 0.507,1.515 0.171,0.655 0.051,0.672 -0.118,1.097 -0.017,0.585 0.135,0.553 0.406,1.217 0.154,0.574 v 0.637 l -0.101,0.416 -0.527,0.788 -0.188,0.397 -0.236,0.716 -0.375,0.859 -0.866,1.299 -0.863,0.473 -0.849,0.18 -1.924,-0.132 -3.088,0.255 -0.849,0.248 -0.916,0.596 -2.364,1.974 -0.796,0.389 -0.56,0.133 -3.569,-1.334 -8.626,1.475 -2.205,-0.274 -2.568,-0.932 -2.679,-0.526 -4.572,0.15 -1.323,0.31 -0.849,0.398 -0.457,0.732 -0.255,0.742 -0.12,0.945 -0.022,0.725 0.142,1.087 -0.034,0.573 -0.221,0.636 -0.652,1.006 -0.846,0.345 -0.916,0.088 -1.477,-0.098 -1.036,0.415 -6.486,4.068 -0.661,0.75 -0.685,0.936 -0.628,0.649 -1.222,0.966 -0.762,0.124 -0.83,-0.307 -0.712,-0.529 -0.883,-0.381 -0.933,0.081 -10.43,5.431 -1.924,0.512 h -0.544 l -0.457,-0.15 -0.678,-0.335 -0.68,-0.176 -1.205,-0.017 -0.933,0.307 -0.796,0.485 -0.373,0.318 -1.024,1.074 -4.682,3.053 -6.404,2.655 -1.277,0.732 -0.611,0.687 -1.46,2.319 -1.051,2.522 -1.053,1.319 -1.272,0.862 -2.806,2.814 -1.085,0.555 -1.698,0.465 -1.38,0.712 -1.135,1.626 -2.326,1.661 -1.515,-0.013 -4.92,-1.235 -1.003,-0.505 -0.695,-0.744 -1.193,-1.652 -1.017,-1.135 -1.275,-1.161 -2.294,-1.644 -0.815,-0.836 -0.339,-0.537 0.185,-0.687 0.204,-0.374 1.585,-2.064 0.44,-0.713 0.373,-0.765 -0.238,-1.391 -0.729,-1.867 -2.313,-3.568 -0.832,-1.727 -0.339,-1.375 0.255,-0.798 0.204,-0.841 0.101,-0.9 -0.135,-1.762 -0.392,-2.179 -0.184,-2.011 -0.034,-1.139 0.202,-3.703 -0.034,-1.451 -0.185,-1.476 -0.543,-2.261 -0.56,-1.105 -0.695,-0.808 -1.686,-0.924 -3.088,-0.795 -3.331,-0.169 -2.732,-0.566 -1.392,-1.037 -0.798,-1.062 -0.717,-1.463 -0.56,-0.722 -0.661,-0.508 -7.15,-0.831 -1.866,-1.063 -3.672,-3.062 2.387,-2.353 1.55,-1.833 0.713,-3.126 0.713,-6.992 0.905,-0.63 0.916,-0.222 0.905,0.195 0.848,0.638 0.961,0.284 1.018,0.089 1.029,-0.08 0.995,-0.275 h 0.011 l 0.023,-0.018 3.088,-1.064 5.769,0.337 2.692,-2.013 1.572,-2.848 3.642,-9.739 2.127,0.195 1.776,1.243 1.821,0.808 2.296,-1.172 1.165,-3.482 0.611,-1.093 4.106,-2.915 0.656,-0.711 0.068,-0.622 0.305,-0.213 1.335,0.489 0.588,0.667 1.538,2.587 0.724,0.907 2.443,1.2 2.036,-0.506 1.855,-1.689 1.9,-2.373 1.086,-0.613 0.656,-0.809 0.102,-1.04 -0.633,-1.379 1.821,-1.379 1.459,-1.886 0.43,-2.323 -1.267,-2.644 4.479,-2.707 4.966,-0.935 9.83,0.053 2.11,-0.419 4.163,-1.541 2.364,-0.241 5.022,0.561 1.968,-0.401 3.167,-1.978 0.667,-0.018 0.633,-0.223 0.747,-1.07 0.057,-0.909 -0.26,-1.213 -0.136,-1.462 0.464,-1.677 1.007,-1.24 0.928,-0.036 1.063,0.321 1.38,-0.205 1.12,-0.839 1.674,-2.141 1.176,-0.839 2.138,-0.464 4.004,0.518 2.104,-0.143 17.058,-7.831 1.335,-1.251 2.002,-3.021 1.188,-1.171 3.936,-0.823 8.585,0.68 3.212,-2.727 0.656,-4.312 -2.918,-1.691 -4.038,-1.19 -2.794,-2.766 0.102,-1.818 0.928,-0.645 0.17,-0.349 -2.183,-0.887 -3.699,-0.484 -1.278,-0.842 1.222,-1.765 1.538,-4.993 2.624,-2.673 3.484,-0.552 4.072,1.332 0.826,0.753 0.577,0.964 0.713,0.946 1.188,0.646 1.21,0.027 3.065,-1.358 3.97,0.224 1.244,-0.646 0.95,-2.399 0.633,1.471 0.238,1.045 0.373,1.04 1.029,1.421 1.357,0.95 2.952,0.744 1.346,1.058 1.324,1.604 0.837,1.371 0.339,1.693 -0.204,2.606 -0.848,2.086 -1.312,2.488 -0.6,2.111 1.256,0.993 6.052,-2.514 1.324,0.027 0.588,1.959 -0.634,2.299 -1.855,4.354 z"
   id="Usti_Region"
   style="fill:none" />
<path
   class="st1"
   d="m 307.14,122.481 0.532,1.296 3.801,1.072 1.561,0.866 4.185,3.179 4.061,0.911 2.375,0.089 1.765,-0.482 1.063,-1.223 1.041,-2 1.731,-4.636 2.33,0.081 3.959,-1.108 12.499,0.92 0.226,-1.492 -0.136,-6.008 -0.124,-0.492 -0.068,-0.662 0.102,-0.966 0.305,-0.59 1.075,-1.217 0.339,-0.877 -0.124,-5.031 -1.663,-2.427 -1.776,-1.407 -0.464,-1.962 h 0.011 l 0.498,-0.592 0.554,-0.457 0.622,-0.296 0.622,-0.135 1.584,-1.156 0.509,-0.798 0.305,-1.43 2.081,1.914 5.543,1.219 0.928,1.712 1.289,1.272 1.538,0.762 1.233,-0.251 0.362,-1.765 v -0.018 l 0.984,-2.268 1.414,-0.995 1.278,0.645 0.509,2.635 1.029,2.545 6.233,0.098 2.918,1.451 1.753,2.839 -0.113,1.674 -0.95,1.817 -0.769,3.186 0.328,2.46 1.018,3.049 1.289,2.86 1.165,1.877 2.183,1.751 1.98,0.875 1.663,1.375 1.312,3.241 0.034,1.678 -0.305,1.731 -0.091,1.642 0.701,1.427 1.366,0.433 0.184,0.058 1.21,-1.276 1.041,-1.838 1.018,-1.267 4.559,-0.384 8.794,3.082 1.55,4.967 3.636,7.366 0.253,1.36 -0.195,0.973 -0.402,0.948 -0.279,1.314 -0.142,1.554 0.156,3.35 0.32,1.553 0.493,1.311 1.349,1.732 0.498,0.881 0.332,0.956 0.188,1.009 0.048,1.039 -0.067,1.047 -0.77,3.668 0.034,0.68 0.139,0.659 3.751,8.618 0.231,1.002 0.043,1.062 -0.178,1.15 -0.418,0.95 -0.62,0.507 -0.794,0.16 -8.383,-1.482 -1.243,-0.843 -2.292,-2.448 -0.62,-0.324 -0.63,-0.113 -0.647,0.053 -2.821,0.966 -0.611,0.492 -0.344,0.916 -0.373,5.468 -0.25,1.215 -0.474,0.916 -0.652,0.546 -0.714,0.217 -0.762,-0.085 -0.796,-0.358 -1.635,-1.405 -3.348,-4.302 -2.097,-1.689 -4.771,-1.931 -1.176,0.011 -1.068,0.441 -4.735,5.339 -0.637,0.281 -0.683,-0.079 -0.743,-0.383 -6.051,-5.096 -1.748,-0.617 -0.623,0.015 -0.469,0.136 -0.327,0.187 -0.253,0.234 -3.891,-3.495 -1.154,-2.123 -0.967,-5.042 -2.833,0.755 -0.736,-0.16 -0.813,-0.302 -0.664,-0.631 -2.085,-2.478 -0.577,-0.391 -0.56,-0.161 -2.619,0.187 -0.899,-0.427 -1.051,-0.88 -0.765,-0.115 -0.798,0.204 -1.243,0.569 -0.899,-0.026 -1.068,-0.444 -0.628,-0.036 -0.527,0.249 -0.406,0.497 -1.275,2.066 -0.633,0.786 -2.256,1.911 -0.697,0.785 -0.44,0.67 -1.154,2.299 -0.782,0.968 -0.916,0.817 -1.82,0.985 -0.832,0.577 -1.289,1.277 -0.967,0.736 -4.009,1.903 -4.434,2.962 -9.814,2.557 -1.905,0.164 -0.95,-0.128 -0.305,-0.22 -0.255,-0.4 -0.137,-0.488 -0.051,-0.554 -0.067,-0.492 -0.084,-0.417 -0.204,-0.501 -0.221,-0.42 -0.491,-0.249 -0.765,-0.115 -1.679,0.115 -2.075,-0.337 -4.877,0.117 -1.188,0.345 -0.846,-3.937 -7.799,-6.439 -6.156,-19.35 -0.13,-0.908 0.168,-0.787 0.38,-0.666 0.505,-0.545 1.539,-0.969 2.003,-5.196 0.459,-0.621 2.47,-2.3 0.301,-0.61 0.149,-0.733 -0.058,-1.823 0.224,-0.863 0.387,-0.77 0.479,-0.665 1.385,-1.293 1.231,-7.124 0.416,-0.843 0.611,-0.18 0.762,0.351 5.714,5.917 0.935,0.222 0.899,-0.203 0.82,-0.565 0.705,-0.871 0.553,-1.114 0.358,-1.296 0.204,-2.672 0.212,-0.89 0.339,-0.589 0.45,-0.344 3.302,-0.287 0.534,-0.334 0.402,-0.471 0.289,-0.539 0.303,-1.008 z"
   id="Liberec_Region"
   style="fill:none" />
<path
   class="st2"
   d="m 126.804,198.856 3.672,3.062 1.866,1.063 7.15,0.831 0.661,0.508 0.56,0.722 0.717,1.463 0.798,1.062 1.392,1.037 2.732,0.566 3.331,0.169 3.088,0.795 1.686,0.924 0.695,0.808 0.56,1.105 0.543,2.261 0.185,1.476 0.034,1.451 -0.202,3.703 0.034,1.139 0.185,2.013 0.392,2.179 0.135,1.762 -0.101,0.9 -0.204,0.841 -0.255,0.798 0.339,1.375 0.832,1.727 2.313,3.568 0.729,1.867 0.238,1.391 -0.373,0.765 -0.44,0.713 -1.585,2.064 -0.204,0.374 -0.185,0.687 0.339,0.537 0.815,0.836 2.294,1.644 1.275,1.161 -1.126,0.501 -0.729,0.737 -0.389,0.907 -0.111,1.015 0.106,1.06 0.264,1.043 0.765,1.779 0.077,0.628 -0.483,0.46 -6.351,1.399 -0.423,0.444 -0.219,0.678 -0.05,0.857 0.091,0.989 1.287,5.039 -0.163,0.631 -0.414,0.444 -0.599,0.269 -1.477,0.037 -1.412,-0.554 -3.913,-4.415 -7.551,-1.477 -0.505,0.108 -1.145,0.711 -2.357,2.589 -10.136,5.516 -0.582,0.513 -0.433,0.861 -1.474,7.171 -0.471,0.596 -0.695,0.201 -1.768,-0.417 -2.934,-1.483 -0.366,-0.041 -0.868,0.239 -2.725,2.034 -0.402,0.095 -0.406,-0.087 -0.411,-0.24 -2.388,-2.509 -8.499,-0.171 -0.726,0.389 -3.304,3.874 -0.52,0.339 -1.563,0.263 -1.914,-0.205 -3.227,-1.199 -0.606,0.028 -0.582,0.263 -2.968,2.99 -0.813,0.462 -1.034,0.182 -5.181,-0.979 -0.679,-1.226 -1.561,-0.604 -4.479,-2.628 0.125,-1.84 0.758,-2.288 -0.283,-2.481 -1.844,-1.754 -4.027,-0.421 -1.674,-1.649 h -0.113 l -16.56,-8.866 -0.351,-1.08 -0.023,-1.546 -0.226,-1.74 -0.973,-1.679 -1.584,-1.371 -1.753,-1.011 -1.55,-1.416 -0.95,-2.577 -0.068,-2.551 0.769,-3.872 -0.317,-2.562 -0.837,-2.026 -1.233,-1.903 -2.681,-2.943 -5.407,-3.376 -1.131,-2.028 1.369,-2.064 1.131,-0.741 0.735,-0.794 0.204,-2.188 -0.407,-2.436 -0.882,-1.519 -2.52,-2.637 2.758,0.204 5.25,0.388 2.104,1.492 0.645,1.581 -0.034,2.931 0.43,1.333 1.222,1.076 1.595,0.494 3.145,0.079 0.781,0.432 0.362,0.617 -0.056,0.785 -0.486,0.961 -0.17,0.026 -0.147,0.053 -0.149,0.098 -0.136,0.123 -0.294,0.326 -0.102,0.344 0.113,0.379 0.283,0.397 1.912,1.931 0.475,0.644 0.452,1.111 0.192,0.996 0.113,0.881 1.312,4.695 1.109,1.726 1.866,0.238 1.527,-1.109 v -1.515 l -0.633,-1.823 -0.328,-2.114 0.339,-3.032 0.588,-1.604 2.16,-2.769 0.294,-2.708 0.894,-1.332 1.222,-0.856 1.244,-1.306 3.394,-6.172 1.176,-1.166 3.213,-1.802 1.301,-1.166 0.396,-0.23 0.984,0.035 0.441,-0.239 0.238,-0.628 -0.068,-0.672 -0.147,-0.575 -0.023,-0.354 0.294,-0.769 0.226,-0.867 0.385,-0.849 0.814,-0.707 3.031,-2.6 4.412,-1.301 8.19,-0.611 5.848,1.062 1.425,-0.159 1.222,-1.177 2.421,-3.753 1.403,-1.39 1.787,-0.646 1.753,-0.106 1.957,0.274 0.679,-0.266 1.538,-1.019 0.984,-0.204 0.916,0.275 10.135,6.171 3.744,0.212 z"
   id="Karlovy_Vary_Region"
   style="fill:none" />
<path
   class="st3"
   d="m 79.024,284.763 5.181,0.979 1.034,-0.182 0.813,-0.462 2.968,-2.99 0.582,-0.263 0.606,-0.028 3.227,1.199 1.914,0.205 1.563,-0.263 0.52,-0.339 3.304,-3.874 0.726,-0.389 8.499,0.171 2.388,2.509 0.411,0.24 0.406,0.087 0.402,-0.095 2.725,-2.034 0.868,-0.239 0.366,0.041 2.934,1.483 1.768,0.417 0.695,-0.201 0.471,-0.596 1.474,-7.171 0.433,-0.861 0.582,-0.513 10.136,-5.516 2.357,-2.589 1.145,-0.711 0.505,-0.108 7.551,1.477 3.913,4.415 1.412,0.554 1.477,-0.037 0.599,-0.269 0.414,-0.444 0.163,-0.631 -1.287,-5.039 -0.091,-0.989 0.05,-0.857 0.219,-0.678 0.423,-0.444 6.351,-1.399 0.483,-0.46 -0.077,-0.628 -0.765,-1.779 -0.264,-1.043 -0.106,-1.06 0.111,-1.015 0.389,-0.907 0.729,-0.737 1.126,-0.501 1.017,1.135 1.193,1.652 0.695,0.744 1.003,0.505 4.92,1.235 1.515,0.013 2.326,-1.661 1.306,3.403 0.051,0.738 -0.051,0.913 -0.322,0.835 -0.44,0.894 -0.459,1.221 0.017,0.73 0.406,0.526 0.544,0.228 0.611,0.08 0.548,-0.028 1.188,-0.297 2.222,-1.24 0.56,-0.176 0.628,0.019 1.443,0.562 1.804,0.42 1.902,0.922 5.315,5.126 0.967,0.606 1.958,0.246 1.527,-0.146 1.477,-0.347 0.883,-0.075 1.085,0.08 2.061,0.578 1.186,0.548 0.952,0.632 2.867,3.157 0.745,0.639 0.618,0.343 3.648,1.113 0.695,0.447 0.457,0.622 0.104,0.661 0.238,0.768 5.74,2.927 0.971,1.028 0.459,0.81 -0.171,0.596 -0.067,0.735 0.034,0.719 0.188,0.858 1.068,3.623 0.12,0.824 -0.053,0.45 -0.118,0.301 -0.272,0.175 -0.457,0.214 -0.594,0.18 -1.058,0.104 -0.322,0.084 -0.238,0.249 -0.238,0.564 -0.034,0.731 0.067,1.462 -0.034,0.76 -0.101,0.656 -0.118,0.463 -1.376,3.453 v 0.472 l 0.067,0.595 0.255,1.005 0.118,0.721 -0.067,0.851 -1.085,3.74 -0.188,0.856 -0.034,1.002 0.152,0.438 0.272,0.243 1.07,0.429 0.779,0.453 0.272,0.577 0.017,0.514 -0.356,0.742 -2.715,3.04 -0.846,0.786 -0.839,0.419 -3.206,0.797 -1.376,0.575 -1.238,0.78 -1.294,1.251 -0.594,0.799 -0.289,0.797 0.44,0.697 1.664,1.499 0.142,0.606 -0.175,0.493 -0.883,0.515 -0.661,0.557 0.017,0.226 1.414,0.863 0.272,0.439 0.067,0.415 -0.192,0.444 -0.645,0.557 -0.288,0.435 -0.103,0.6 0.255,1.298 0.442,0.609 0.548,0.376 0.49,0.165 0.544,0.27 0.731,0.518 0.967,1.136 0.423,0.834 0.204,0.94 -0.101,4.167 0.151,1.73 0.272,1.009 0.373,0.773 1.053,1.288 0.745,1.138 0.243,1.173 v 0.981 l -0.322,1.635 -0.474,1.468 -0.209,0.469 -0.137,0.585 0.017,1.532 1.551,3.46 1.39,5.435 0.154,1.431 -0.103,0.837 -0.762,3.15 -0.188,2.587 0.238,2.066 0.594,2.953 0.135,1.428 -0.135,1.126 -0.459,1.03 -2.109,3.525 -0.984,2.155 -0.611,2.105 -0.443,1.176 -0.373,0.726 -0.524,0.448 -1.902,1.141 -0.44,0.406 -0.527,0.661 -0.135,0.652 0.034,0.546 0.611,1.598 v 0.924 l -0.137,0.652 -0.339,0.622 -0.7,0.914 -0.392,0.654 -0.067,0.646 0.154,0.587 0.44,0.613 1.532,1.571 0.476,1.174 -0.084,0.626 -0.594,0.552 -0.89,0.323 -1.135,0.739 -0.984,0.961 -2.886,5.454 -1.058,1.444 -0.423,0.31 -0.476,0.095 -1.323,-0.268 -1.017,0.484 -1.154,1.305 -1.409,3.636 -0.394,2.417 0.055,1.799 0.18,0.963 0.103,0.827 -0.034,1.433 -0.317,0.986 -0.515,0.885 -2.359,2.328 -2.544,3.96 -2.381,5.061 0.135,1.556 0.004,0.046 -0.705,-0.15 -1.516,0.696 -1.041,1.829 -1.131,2.894 -2.556,-1.228 -3.461,-2.482 -3.145,-2.947 -1.572,-2.552 -0.068,-4.668 -1.222,-2.899 -4.649,-4.733 -3.326,-4.451 -1.335,-1.154 -2.195,-0.844 -6.617,-0.31 -3.099,-1.809 -1.742,-2.801 -1.437,-3.285 -10.248,-13.921 -1.357,-0.769 -0.023,-0.017 -3.495,-4.165 -0.498,-1.556 -0.147,-1.617 -0.611,-1.366 -1.9,-0.787 -3.077,-3.261 -1.584,-1.281 -1.855,-0.995 -4.185,-1.151 -1.504,0.476 0.486,2.155 -2.047,0.277 -6.448,-0.943 -2.172,-0.788 -1.731,-1.792 -3.586,-8.028 -2.206,-2.279 -5.045,-2.375 -2.138,-1.777 -1.244,-2.428 -0.543,-2.724 -0.317,-5.512 -0.147,-2.831 -0.814,-0.66 -1.154,0.165 -1.233,-0.374 -1.188,-1.242 -0.86,-1.26 -0.69,-1.503 -0.701,-2.017 -0.441,-1.974 -0.509,-3.731 -0.769,-1.827 -1.154,-1.27 -2.613,-1.436 -1.12,-1.358 0.079,-0.409 0.52,-1.323 -0.871,-0.427 -0.283,-0.226 0.927,-2.064 -0.079,-2.239 -0.905,-1.786 -1.516,-0.793 -3.642,-1.743 -1.674,-1.142 -1.572,-1.421 -2.262,-3.253 -1.131,-2.164 -0.543,-1.78 1.29,-2.54 4.525,-1.921 1.742,-1.764 0.351,-2.778 0.057,-3.548 0.667,-2.387 2.195,0.673 0.803,-2.614 2.522,-4.663 0.882,-2.591 z"
   id="Pilsen_Region"
   style="fill:none" />
<path
   class="st4"
   d="m 188.288,441.793 -0.004,-0.046 -0.135,-1.556 2.381,-5.061 2.544,-3.96 2.359,-2.328 0.515,-0.885 0.317,-0.986 0.034,-1.433 -0.103,-0.827 -0.18,-0.963 -0.055,-1.799 0.394,-2.417 1.409,-3.636 1.154,-1.305 1.017,-0.484 1.323,0.268 0.476,-0.095 0.423,-0.31 1.058,-1.444 2.886,-5.454 0.984,-0.961 1.135,-0.739 0.89,-0.323 0.594,-0.552 0.084,-0.626 -0.476,-1.174 -1.532,-1.571 -0.44,-0.613 -0.154,-0.587 0.067,-0.646 0.392,-0.654 0.7,-0.914 0.339,-0.622 0.137,-0.652 v -0.924 l -0.611,-1.598 -0.034,-0.546 0.135,-0.652 0.527,-0.661 0.44,-0.406 1.902,-1.141 0.524,-0.448 0.373,-0.726 0.443,-1.176 0.611,-2.105 0.984,-2.155 2.109,-3.525 0.459,-1.03 0.135,-1.126 -0.135,-1.428 -0.594,-2.953 -0.238,-2.066 0.188,-2.587 0.762,-3.15 0.103,-0.837 -0.154,-1.431 -1.39,-5.435 -1.551,-3.46 6.351,-3.726 0.628,-0.078 0.515,0.131 1.272,0.885 0.611,0.205 2.292,0.083 0.729,0.164 0.611,0.225 0.618,0.452 1.984,1.141 0.916,0.109 1.138,-0.129 1.958,-1.017 0.594,-0.451 0.83,-0.426 5.283,-1.649 0.356,-0.279 0.272,-0.321 0.594,-1.938 0.527,-1.147 0.712,-0.591 1.222,-0.66 0.782,-0.139 0.837,0.094 1.101,0.601 1.342,1.06 0.645,0.212 2.035,0.161 1.414,0.495 2.903,0.109 6.385,-0.839 2.172,-0.887 1.974,-1.981 0.459,-0.314 0.524,-0.168 1.308,-0.248 1.753,0.013 1.306,0.338 0.577,0.309 0.356,0.373 0.406,1.099 0.221,0.44 0.238,0.251 0.305,0.122 0.423,0.07 0.527,0.199 0.39,0.273 0.459,0.543 0.219,0.392 0.527,0.768 0.243,0.235 0.272,0.209 0.322,0.17 0.493,0.174 0.832,0.074 1.118,-0.131 5.13,-2.88 0.899,-0.199 1.359,-0.061 1.46,0.364 1.82,1.009 2.054,0.27 12.159,-0.491 1.339,0.36 -0.101,0.504 -0.034,0.469 0.051,0.427 0.188,0.19 2.602,0.417 1.169,-0.157 1.188,-0.347 2.614,-1.642 1.599,-1.652 0.748,-0.347 3.545,-0.76 1.534,-1.214 0.695,-1.042 0.272,-4.41 0.067,-0.522 0.103,-0.479 0.678,-1.384 0.457,-0.679 0.339,-0.4 1.342,-1.156 0.527,-0.183 0.423,0.094 0.599,0.637 0.782,1.069 0.356,0.366 0.577,0.331 3.239,0.992 0.601,0.512 0.373,0.636 0.067,0.451 0.051,1.087 0.56,0.349 1.104,0.104 2.104,-0.383 1.323,0.47 0.729,0.47 0.262,0.547 0.339,1.067 0.339,0.75 0.457,0.688 0.56,0.617 0.51,0.453 0.491,0.312 0.51,0.2 0.712,-0.103 1.558,1.665 0.452,0.75 0.274,0.792 -0.007,0.792 -0.389,0.748 -0.753,0.576 -3.869,1.123 -0.63,0.428 -0.277,0.665 1.63,5.872 0.293,2.735 -0.089,3.087 -2.311,9.109 -0.024,1.182 0.281,1.027 0.479,0.806 1.811,1.758 0.308,0.44 0.204,0.585 0.072,0.808 -0.255,3.453 0.115,0.828 0.313,0.842 0.572,0.87 4.107,3.835 2.075,1.263 1.003,0.138 0.976,-0.318 1.881,-1.738 0.955,-0.335 0.943,0.092 1.763,1.022 2.448,2.393 3.146,2.094 2.886,3.842 4.396,2.863 0.476,-0.02 0.467,-0.328 1.914,-2.911 0.551,-0.393 0.608,-0.187 0.681,0.04 5.752,3.009 0.457,0.303 1.246,0.345 5.327,0.622 0.94,0.371 0.611,0.868 0.44,1.411 0.221,2.717 0.272,1.484 0.356,1.129 0.544,0.717 5.197,4.939 0.406,0.233 0.51,0.104 1.832,-0.328 0.493,-0.022 5.163,0.943 1.561,-0.112 4.247,-1.698 0.459,-0.103 0.373,0.026 0.406,0.275 5.199,5.127 0.695,0.921 0.204,0.595 -0.019,0.449 -0.286,0.395 -0.459,0.353 -0.56,0.297 -0.745,0.185 -2.417,0.156 -0.575,0.108 -0.289,0.284 -0.255,0.666 -0.12,0.732 -0.118,1.193 -0.238,0.812 -0.544,1.11 -3.561,4.206 -0.464,0.662 -0.204,0.645 -0.236,1.333 0.089,0.68 0.147,0.42 0.204,0.073 h 0.344 l 0.375,0.155 0.339,0.408 0.474,1.128 0.409,0.742 0.678,0.47 0.762,0.172 1.732,0.137 1.279,0.276 0.524,0.334 0.493,0.473 0.543,0.855 0.101,0.588 v 0.683 l -0.527,1.738 -1.669,4.207 -0.406,1.33 -0.457,0.996 -0.272,1.571 -0.008,0.041 -2.51,-0.976 -5.407,-4.686 -2.353,-1.348 -4.864,-1.64 -5.26,-2.68 -2.443,-0.696 -5.124,-0.06 -0.543,-0.378 -0.452,-0.825 -0.554,-0.688 -0.837,0.009 -0.441,0.679 -0.272,2.234 -0.362,0.876 -1.516,1.821 -0.566,0.361 -8.348,2.25 -2.172,-0.043 0.724,-2.37 0.045,-2.259 -0.464,-2.259 -0.803,-2.346 -8.518,-0.696 -6.086,-2.089 -2.398,0.31 -0.351,0.275 -0.17,0.559 v 0.774 l 0.102,0.902 -1.493,3.506 -0.045,4.732 0.453,5.081 -0.011,4.59 -2.319,10.388 -0.792,2.09 -0.181,1.156 0.215,1.044 0.475,1.31 0.486,1.07 0.238,0.299 -1.256,2.901 -2.217,0.205 -5.656,-2.319 -5.712,-0.787 -1.651,0.633 -0.645,1.574 -0.441,2.01 -1.097,1.941 -0.554,3.164 -5.758,5.059 -2.07,3.357 -0.396,4.461 0.056,5.047 -0.554,4.289 -0.496,0.496 -1.699,1.699 -1.798,-0.119 -0.86,-1.078 -0.645,-1.552 -1.176,-1.556 -0.713,-0.158 -1.674,0.584 -0.848,-0.094 -0.351,-0.695 -0.011,-1.1 -0.136,-1.053 -0.701,-0.618 -1.686,0.137 -3.28,1.578 -1.64,0.367 -1.289,-0.315 -4.366,-2.286 -2.624,-3.089 -1.595,1.101 -2.455,6.513 -1.731,1.778 -5.69,2.451 -2.206,1.768 -0.86,0.341 -1.052,0.119 -10.859,-3.835 -15.508,-1.739 -3.721,-1.56 -0.916,-0.819 -1.889,-2.354 -0.475,-0.904 -0.509,-2.253 0.204,-0.478 0.622,-0.23 0.735,-1.545 0.328,-0.239 0.532,0.102 0.498,-0.154 0.204,-1.033 -0.283,-1.008 -0.656,-0.461 -0.758,-0.307 -0.554,-0.521 -0.701,-1.358 -1.821,-2.793 -0.962,-1.043 -7.364,-4.052 -2.398,-1.992 -1.991,-1.557 -2.081,-1.138 -4.4,-1.181 -2.138,-2.216 -5.283,-10.533 -2.545,-3.968 -1.538,-0.857 -4.078,-0.643 -2.07,-0.978 -1.866,-1.861 -1.708,-2.591 -1.171,-3.029 -0.271,-3.142 -1.991,0.223 -1.866,-1.03 -1.855,-1.486 -1.923,-1.177 z"
   id="South_Bohemian_Region"
   style="fill:none" />
<path
   class="st5"
   d="m 407.151,134.698 13.105,4.59 1.244,0.829 1.448,2.22 0.803,0.784 1.154,0.365 9.095,-2.202 2.715,0.258 0.238,1.177 0.351,1.051 5.531,9.414 0.701,0.249 3.031,-0.089 6.482,-2.439 1.81,0.258 1.471,1.424 1.425,2.706 0.95,2.331 0.6,2.375 -0.249,2.045 -1.572,1.28 -0.215,0.56 -0.091,0.551 0.079,0.542 0.226,0.516 4.649,-0.853 6.787,-6.571 4.615,0.472 3.461,2.65 1.663,0.782 1.844,-0.427 1.335,-1.681 0.792,-2.197 0.803,-1.726 1.414,-0.303 3.97,0.08 3.575,0.917 3.36,1.904 9.321,9.876 0.995,3.277 -3.439,1.412 0.419,1.296 v 0.568 l -0.305,0.479 -0.475,0.994 -0.17,0.87 -0.147,1.322 0.011,1.011 0.306,-0.098 -0.939,1.313 -2.251,2.226 -1.029,1.445 -1.878,0.417 -3.507,-0.975 -1.719,0.559 -0.848,2.216 -1.64,1.409 -1.923,1.143 -1.685,1.409 -0.6,0.239 -1.007,0.638 -0.667,0.062 0.532,1.904 0.204,0.523 -2.183,-0.496 -0.86,2.718 1.029,3.063 3.552,0.628 1.414,4.415 0.52,0.99 1.403,1.132 0.803,-0.177 0.781,-0.681 1.278,-0.416 h 4.988 l 1.041,0.327 0.769,1.592 0.079,1.591 -0.091,1.556 0.283,1.493 1.946,2.589 4.875,1.784 2.432,1.704 1.572,2.216 2.783,5.065 1.584,2.152 1.391,2.513 3.314,3.455 1.188,3.225 1.244,5.812 1.029,2.13 1.923,2.517 -11.587,-3.735 -0.57,0.29 -0.445,0.589 -0.329,0.827 -0.224,1.008 -0.166,2.314 -0.233,1.057 -0.64,0.817 -11.322,5.387 -0.625,0.536 -0.459,0.745 -0.51,2.133 -0.409,0.936 -0.543,0.771 -0.649,0.612 -1.501,0.788 -9.781,0.917 -1.698,0.687 -1.59,1.195 -4.242,-3.659 -1.263,-0.301 -0.517,-0.362 -1.732,-2.191 -0.421,-0.361 -0.957,-0.224 -1.241,-0.654 -1.299,-1.19 -1.087,-1.609 -0.813,-1.716 -0.661,-0.505 -6.291,-1.256 -0.863,-0.643 -0.495,-0.912 -0.229,-1.092 -0.029,-3.457 -0.113,-0.913 -0.322,-0.644 -0.606,-0.449 -3.035,-0.91 -4.567,0.081 -1.027,0.513 -6.969,6.847 -0.623,0.303 -0.459,-0.144 -0.452,-0.404 -0.43,-0.63 -0.767,-1.782 -1.012,-4.393 -0.421,-0.567 -0.572,-0.238 -5.437,1.594 -0.69,0.827 -0.505,1.081 -1.445,4.624 -0.531,0.669 -0.702,0.228 -0.844,-0.189 -4.451,-3.041 -0.57,-0.189 -3.35,0.997 -1.611,-0.021 -4.271,-2.11 -1.664,0.131 -2.116,1.059 -6.666,6.26 -0.842,0.065 -6.034,-2.271 0.322,-0.479 -0.067,-0.703 -0.426,-1.064 -1.44,-2.143 -1.053,-1.27 -0.837,-0.829 -1.748,-1.214 -0.305,-0.395 -0.269,-0.537 0.034,-0.882 0.168,-0.509 1.782,-1.85 0.459,-0.678 0.135,-0.335 0.135,-0.388 0.07,-0.423 -0.221,-0.951 -1.681,-4.846 -0.474,-1.816 -0.255,-1.402 -0.017,-2.31 -0.406,-2.92 -0.322,-0.966 -0.493,-0.993 -0.899,-0.822 -0.736,-0.313 -0.796,-0.056 -4.48,0.582 -2.992,-0.715 -1,-0.079 -2.02,0.45 -0.77,0.062 -0.796,-0.075 -0.63,-0.244 -0.592,-0.653 -0.375,-0.908 -0.305,-1.96 -0.407,-1.348 -0.933,-1.514 -0.678,-0.655 -0.681,-0.449 -5.418,-2.333 -0.289,-0.212 -0.236,-0.637 -0.154,-1.131 0.154,-2.519 0.356,-1.376 0.289,-0.827 0.95,-1.29 0.933,-1.717 0.373,-0.965 0.171,-1.406 -0.087,-1.679 -1,-6.922 -0.221,-0.74 -0.356,-0.793 -0.745,-1.355 -0.289,-1.023 0.067,-1.357 0.373,-0.892 0.087,-0.089 0.356,-0.545 0.339,-0.607 0.034,-0.639 -0.221,-0.656 0.253,-0.234 0.327,-0.187 0.469,-0.136 0.623,-0.015 1.748,0.617 6.051,5.096 0.743,0.383 0.683,0.079 0.637,-0.281 4.735,-5.339 1.068,-0.441 1.176,-0.011 4.771,1.931 2.097,1.689 3.348,4.302 1.635,1.405 0.796,0.358 0.762,0.085 0.714,-0.217 0.652,-0.546 0.474,-0.916 0.25,-1.215 0.373,-5.468 0.344,-0.916 0.611,-0.492 2.821,-0.966 0.647,-0.053 0.63,0.113 0.62,0.324 2.292,2.448 1.243,0.843 8.383,1.482 0.794,-0.16 0.62,-0.507 0.418,-0.95 0.178,-1.15 -0.043,-1.062 -0.231,-1.002 -3.751,-8.618 -0.139,-0.659 -0.034,-0.68 0.77,-3.668 0.067,-1.047 -0.048,-1.039 -0.188,-1.009 -0.332,-0.956 -0.498,-0.881 -1.349,-1.732 -0.493,-1.311 -0.32,-1.553 -0.156,-3.35 0.142,-1.554 0.279,-1.314 0.402,-0.948 0.195,-0.973 -0.253,-1.36 -3.636,-7.366 z"
   id="Hradec_Kralove_Region"
   style="fill:none" />
<path
   class="st2"
   d="m 562.771,196.967 1.618,0.971 2.534,-0.301 11.244,3.151 1.199,0.734 2.545,2.141 1.403,0.743 1.504,0.018 3.337,-0.69 1.278,0.389 -0.237,0.478 0.373,1.857 0.679,2.21 0.656,1.485 1.075,1.167 3.857,2.439 2.602,0.751 5.135,-0.15 2.262,0.963 -2.013,0.813 0.305,0.645 0.385,0.574 0.453,0.494 0.498,0.433 -0.136,2.225 0.215,2.162 0.758,1.756 1.459,1.103 1.188,-3.123 2.421,-0.185 1.726,10.08 -0.108,0.794 -0.308,0.884 -0.469,0.884 -0.601,0.794 -0.695,0.614 -0.76,0.345 -0.789,-0.015 -1.518,-0.957 -0.666,-0.086 -0.606,0.242 -0.56,0.496 -2.518,3.698 -8.869,4.944 -1.448,1.682 -0.536,1.034 -0.354,1.184 -0.233,2.591 -0.267,0.921 -1.111,1.805 -0.25,0.607 -0.075,0.77 1.243,5.017 0.038,0.81 -0.135,0.764 -0.358,0.734 -6.515,9.134 -0.423,0.86 -0.284,0.919 -0.12,0.951 0.053,0.949 0.236,0.919 0.443,0.861 3.064,2.996 0.255,0.481 0.048,0.512 -0.195,0.572 -3.143,4.109 -0.325,0.839 -0.209,0.957 -0.515,6.161 0.096,0.749 0.267,0.645 0.488,0.535 1.424,0.645 4.733,0.625 0.476,0.32 0.255,0.454 0.303,1.717 0.236,0.543 0.447,0.453 9.364,4.757 0.77,0.024 3.078,-1.685 0.77,-0.123 0.77,0.293 8.417,9.087 1.611,0.809 5.548,0.304 2.544,-1.974 0.589,-0.271 0.635,0.041 4.002,2.696 2.799,0.219 3.968,-1.313 3.158,1.51 2.539,2.181 0.488,0.766 0.178,0.736 -0.62,5.565 0.101,1.106 0.325,0.911 0.606,0.639 0.753,0.232 0.717,-0.152 2.001,-1.289 0.63,-0.211 0.62,0.143 0.616,0.647 3.347,7.021 0.726,0.762 3.448,1.608 2.924,2.536 1.176,1.496 0.406,0.899 0.488,1.864 0.204,2.129 3.119,0.798 1.397,1.094 1.64,1.892 -1.64,4.412 -1.592,0.395 -1.352,-0.129 -0.63,-0.325 -1.027,-1.189 -0.551,-0.427 -0.577,-0.22 -0.582,0.004 -0.565,0.238 -0.522,0.489 -0.452,0.757 -0.702,2.025 -0.402,0.665 -0.44,0.428 -1.356,0.753 -0.399,0.369 -0.344,0.576 -0.236,0.758 -0.111,0.827 0.038,1.642 0.308,1.811 -2.946,1.311 -9.615,-1.945 -1.664,-0.07 -1.238,0.16 -1.328,0.526 -0.409,0.347 -0.202,0.49 0.156,0.677 0.714,1.694 0.272,1.075 v 0.747 l -0.221,0.693 -0.356,0.512 -0.476,0.472 -0.666,0.273 -0.781,0.118 -7.794,-0.157 -0.849,0.212 -1.888,0.781 -1.426,0.811 -0.56,0.462 -0.457,0.573 -0.527,0.936 -0.507,1.116 -0.543,0.928 -0.678,0.596 -0.647,0.227 -1.125,-0.221 -4.699,-2.117 -0.967,-0.191 -2.313,-1.26 -2.698,-2.31 -1.686,-0.632 -0.683,-0.079 -2.054,-0.267 -0.452,2.694 -0.171,2.868 0.883,2.863 0.945,1.182 -0.979,2.017 -0.373,0.471 -3.74,3.604 -0.594,0.754 -0.524,0.822 -0.358,0.397 -0.491,0.243 -0.356,0.026 -0.443,-0.086 -7.13,0.175 -0.762,0.224 -0.493,0.599 -0.298,0.864 -0.481,3.077 -0.276,0.811 -0.459,0.533 -0.548,0.189 -0.486,-0.086 -0.423,-0.285 -0.351,-0.406 -0.486,-0.867 -0.11,-0.269 0.086,-0.297 0.12,-0.787 0.043,-0.956 -0.19,-1.217 -1.303,-3.026 -2.054,-3.053 -2.227,-2.145 -4.093,-1.273 -1.823,-1.068 -0.623,-0.755 -0.334,-0.932 0.166,-3.274 -0.144,-0.847 -0.265,-0.722 -0.365,-0.612 -5.084,-4.946 -0.548,-0.9 -0.37,-0.855 -0.736,-3.914 -0.976,-2.539 -1.339,-2.122 -0.777,-0.694 -4.271,-1.772 -1.077,-0.055 -0.928,0.233 -0.705,0.587 -0.406,1.008 -0.197,2.008 0.072,0.716 0.164,0.583 1.996,3.335 0.774,1.977 0.26,1.077 0.111,1.077 -0.084,1.032 -0.325,0.944 -1.275,1.998 -1.765,1.953 -0.967,0.726 -0.972,0.431 -0.935,0.044 -5.952,-4.617 -0.534,-0.859 -0.087,-0.815 0.481,-0.748 0.71,-0.73 0.517,-0.774 0.337,-0.819 0.168,-0.863 0.01,-0.907 -0.14,-0.952 -2.717,-6.939 -0.284,-1.13 -0.058,-0.945 0.238,-0.691 1.231,-0.606 0.291,-0.358 -0.005,-0.458 -0.26,-0.539 -4.67,-4.642 -1.486,-2.514 -0.414,-1.18 -0.091,-0.98 0.305,-0.67 0.777,-0.248 3.477,0.832 0.666,-0.181 0.592,-0.647 0.515,-1.269 0.44,-2.046 1.092,-1.14 0.661,-2.541 0.305,-3.379 0.255,-1.202 3.376,-3.496 -0.813,-5.728 -1.087,-1.639 -1.765,-0.671 -0.56,-0.603 -0.406,-0.946 -0.289,-2.841 -4.535,-9.202 -1.748,-2.635 -0.628,-1.232 -0.226,-1.43 0.171,-1.335 1.77,-3.805 -0.154,-4.069 0.103,-4.571 -0.103,-1.026 -0.813,-3.241 -0.443,-3.787 -0.204,-0.833 -0.305,-0.779 -0.767,-1.307 -0.07,-0.807 0.358,-0.912 1.871,-1.08 0.406,-0.157 0.664,-0.448 2.239,-2.409 3.364,-2.406 0.493,-0.47 0.305,-0.605 0.168,-0.668 -0.084,-1.147 -0.135,-0.601 -0.697,-1.836 0.154,-1.784 2.749,-9.24 4.146,-10.569 1.226,-0.313 1.029,-0.916 1.821,-2.529 1.312,-0.908 0.961,-0.035 2.025,0.723 0.984,-0.071 0.271,-0.626 -0.023,-2.063 0.305,-0.467 1.606,0.026 0.656,0.45 0.509,1.032 1.165,1.745 1.324,0.502 0.701,-1.454 -0.215,-2.248 -1.425,-1.887 -0.158,-4.146 -1.154,-3.063 -1.991,-2.189 -2.669,-1.563 -2.047,-2.111 -1.075,-3.313 -0.814,-3.642 -1.244,-3.13 -3.507,-5.176 -0.011,-2.39 2.975,-1.806 2.5,0.319 z"
   id="Olomouc_Region"
   style="fill:none" />
<path
   class="st3"
   d="m 523.396,246.976 3.767,3.474 4.593,2.383 4.445,-0.325 3.371,-4.6 2.432,-1.76 1.335,-1.892 1.188,-2.306 1.968,-2.976 2.455,-2.105 2.172,-0.317 2.195,0.15 1.33,-0.339 -4.146,10.569 -2.749,9.24 -0.154,1.784 0.697,1.836 0.135,0.601 0.084,1.147 -0.168,0.668 -0.305,0.605 -0.493,0.47 -3.364,2.406 -2.239,2.409 -0.664,0.448 -0.406,0.157 -1.871,1.08 -0.358,0.912 0.07,0.807 0.767,1.307 0.305,0.779 0.204,0.833 0.443,3.787 0.813,3.241 0.103,1.026 -0.103,4.571 0.154,4.069 -1.77,3.805 -0.171,1.335 0.226,1.43 0.628,1.232 1.748,2.635 4.535,9.202 0.289,2.841 0.406,0.946 0.56,0.603 1.765,0.671 1.087,1.639 0.813,5.728 -3.376,3.496 -0.255,1.202 -0.305,3.379 -0.661,2.541 -1.092,1.14 -1.188,0.261 -5.485,-2.776 -2.561,-0.896 -2.732,-0.254 -3.689,0.267 -1,-0.118 -1.364,-0.661 -0.83,-0.215 -5.844,0.022 -0.95,0.396 -0.56,0.737 -0.135,1.414 -0.204,1.101 -0.356,0.688 -0.967,0.799 -12.974,1.262 -2.636,-0.235 -2.138,-0.657 -4.485,-2.894 -3.853,-1.405 -1.171,-0.837 -0.77,-1.111 -0.695,-1.254 -0.984,-1.228 -1.426,-1.202 -4.112,-2.729 -3.223,-1.621 -2.212,-0.665 -2.816,-0.132 -2.359,0.232 -1.193,-0.271 -0.815,-0.584 -0.356,-0.745 -0.322,-0.864 -0.779,-0.79 -1.222,-0.671 -2.518,-0.536 -1.628,-0.577 -1.477,-0.746 -1.534,-1.046 -0.745,-0.306 -0.661,-0.009 -0.459,0.419 -0.255,0.436 -0.524,1.361 -0.392,0.664 -0.507,0.384 -1.222,0.443 -0.527,0.293 -1.686,1.915 -1.068,0.671 -1.02,0.013 -1.205,-0.336 -1.491,-0.645 -0.952,0.087 -0.784,0.397 -2.77,-0.74 -1.724,-3.493 -1.498,-2.02 -1.784,-1.423 -2.833,-1.38 -0.421,-0.419 -0.267,-0.583 -0.236,-1.704 -0.394,-0.772 -0.587,-0.654 -1.52,-0.951 -2.934,-0.698 -4.992,-3.901 -1.914,-0.528 -8.342,0.673 -0.637,-0.34 -1.159,-1.288 -2.821,-4.601 -2.107,-2.486 -4.74,-3.14 0.154,-1.356 0.44,-1.748 0.544,-1.607 0.255,-0.989 0.123,-0.929 0.07,-3.39 0.067,-0.732 0.135,-0.496 0.289,-0.609 0.238,-0.85 -0.152,-0.837 -1.024,-1.219 -0.798,-0.658 -0.762,-0.393 -1.443,-0.412 -0.883,-0.632 -3.992,-3.842 -0.765,-0.5 -3.72,-1.211 -2.564,-1.659 -0.796,-0.808 -1.255,-2.01 0.531,-0.827 2.025,-0.982 2.227,-0.562 0.974,0.043 0.204,-1.748 0.051,-0.598 -0.034,-0.588 -0.409,-1.924 -0.125,-0.858 v -0.895 l 0.125,-0.568 0.255,-0.501 1.799,-1.746 6.034,2.271 0.842,-0.065 6.666,-6.26 2.116,-1.059 1.664,-0.131 4.271,2.11 1.611,0.021 3.35,-0.997 0.57,0.189 4.451,3.041 0.844,0.189 0.702,-0.228 0.531,-0.669 1.445,-4.624 0.505,-1.081 0.69,-0.827 5.437,-1.594 0.572,0.238 0.421,0.567 1.012,4.393 0.767,1.782 0.43,0.63 0.452,0.404 0.459,0.144 0.623,-0.303 6.969,-6.847 1.027,-0.513 4.567,-0.081 3.035,0.91 0.606,0.449 0.322,0.644 0.113,0.913 0.029,3.457 0.229,1.092 0.495,0.912 0.863,0.643 6.291,1.256 0.661,0.505 0.813,1.716 1.087,1.609 1.299,1.19 1.241,0.654 0.957,0.224 0.421,0.361 1.732,2.191 0.517,0.362 1.263,0.301 4.242,3.659 1.59,-1.195 1.698,-0.687 9.781,-0.917 1.501,-0.788 0.649,-0.612 0.543,-0.771 0.409,-0.936 0.51,-2.133 0.459,-0.745 0.625,-0.536 11.322,-5.387 0.64,-0.817 0.233,-1.057 0.166,-2.314 0.224,-1.008 0.329,-0.827 0.445,-0.589 0.57,-0.29 z"
   id="Pardubice_Region"
   style="fill:none" />
<path
   class="st6"
   d="m 680.433,261.153 1.551,0.388 6.391,4.179 -0.713,3.133 1.425,1.649 6.991,1.324 1.663,0.921 3.45,2.973 1.289,0.579 2.568,0.535 1.301,0.964 0.464,0.929 0.758,2.629 0.611,1.148 2.172,1.778 1.584,-0.315 3.065,-2.672 -0.124,-0.289 -0.147,-0.193 -0.192,-0.096 h -0.238 l 4.412,-0.543 4.231,1.507 8.133,4.493 2.545,-0.009 4.31,-2.758 1.617,0.981 0.679,3.073 -0.271,2.6 0.475,2.074 2.907,1.566 -3.009,3.49 0.045,4.537 1.9,5.137 2.579,5.308 1.097,4.912 0.69,1.265 1.459,1.02 3.371,0.297 1.561,0.471 1.425,1.168 2.149,2.536 1.38,0.828 1.595,-0.131 1.708,-0.741 1.708,-0.296 1.64,1.22 0.453,1.316 0.735,5.801 0.509,1.619 1.29,2.942 0.486,1.523 1.572,7.174 0.317,3.473 -0.464,2.806 -4.479,0.122 -2.047,0.782 -4.491,4.133 -3.065,0.174 -3.167,-0.972 -3.586,-1.806 -0.758,-0.156 -0.758,0.156 -3.122,1.65 -4.841,-0.703 -2.251,1.424 -0.566,1.38 -0.271,3.124 -0.554,1.475 -0.905,0.919 -3.597,1.934 -4.66,5.704 -2.455,1.612 -3.19,-0.719 -0.069,2.033 -1.208,-0.029 -0.625,-0.26 -0.606,-0.459 -0.529,-0.707 -0.394,-1.011 -0.871,-4.796 -0.327,-1.071 -0.476,-0.946 -0.678,-0.782 -1.881,-1.191 -0.736,-0.83 -2.28,-4.881 -0.548,-0.607 -1.881,-0.718 -8.313,0.133 -0.741,-0.273 -3.297,-2.341 -1.027,-0.421 -17.067,1.687 -0.921,-0.194 -0.767,-0.401 -0.606,-0.613 -0.43,-0.836 -0.454,-2.079 -0.305,-0.711 -0.382,-0.458 -0.438,-0.259 -4.824,-0.079 -1.64,-1.892 -1.397,-1.094 -3.119,-0.798 -0.204,-2.129 -0.488,-1.864 -0.406,-0.899 -1.176,-1.496 -2.924,-2.536 -3.448,-1.608 -0.726,-0.762 -3.347,-7.021 -0.616,-0.647 -0.62,-0.143 -0.63,0.211 -2.001,1.289 -0.717,0.152 -0.753,-0.232 -0.606,-0.639 -0.325,-0.911 -0.101,-1.106 0.62,-5.565 -0.178,-0.736 -0.488,-0.766 -2.539,-2.181 -3.158,-1.51 -3.968,1.313 -2.799,-0.219 -4.002,-2.696 -0.635,-0.041 -0.589,0.271 -2.544,1.974 -5.548,-0.304 -1.611,-0.809 -8.417,-9.087 -0.77,-0.293 -0.77,0.123 -3.078,1.685 -0.77,-0.024 -9.364,-4.757 -0.447,-0.453 -0.236,-0.543 -0.303,-1.717 -0.255,-0.454 -0.476,-0.32 -4.733,-0.625 -1.424,-0.645 -0.488,-0.535 -0.267,-0.645 -0.096,-0.749 0.515,-6.161 0.209,-0.957 0.325,-0.839 3.143,-4.109 0.195,-0.572 -0.048,-0.512 -0.255,-0.481 -3.064,-2.996 -0.443,-0.861 -0.236,-0.919 -0.053,-0.949 0.12,-0.951 0.284,-0.919 0.423,-0.86 6.515,-9.134 0.358,-0.734 0.135,-0.764 -0.038,-0.81 -1.243,-5.017 0.075,-0.77 0.25,-0.607 1.111,-1.805 0.267,-0.921 0.233,-2.591 0.354,-1.184 0.536,-1.034 1.448,-1.682 8.869,-4.944 2.518,-3.698 0.56,-0.496 0.606,-0.242 0.666,0.086 1.518,0.957 0.789,0.015 0.76,-0.345 0.695,-0.614 0.601,-0.794 0.469,-0.884 0.308,-0.884 0.108,-0.794 -1.726,-10.08 2.387,1.932 1.018,3.176 0.554,0.37 0.588,0.132 0.577,-0.124 0.566,-0.379 3.212,-3.899 5.215,-0.477 9.785,1.729 2.534,-0.662 1.878,-1.535 3.247,-4.493 0.611,-1.395 0.283,-1.166 0.713,-0.459 1.855,0.689 0.611,0.574 2.013,2.72 0.271,0.388 0.057,0.459 -0.079,0.512 -0.249,0.538 -1.188,3.195 -0.215,1.561 0.249,1.72 1.154,1.146 1.708,3.156 -1.029,2.582 -2.217,1.921 -4.66,2.792 -2.918,1.145 -5.282,0.203 -1.199,0.607 -0.803,1.717 0.226,1.241 5.317,6.73 1.708,0.774 1.108,-0.202 0.928,-0.536 1.165,-0.273 1.437,0.387 2.975,1.477 1.538,0.325 0.045,0.167 0.023,0.158 -0.023,0.132 -0.045,0.123 -1.018,0.87 -0.351,0.932 0.339,0.976 1.029,1.028 1.21,1.45 0.747,1.88 0.611,2.099 0.86,2.028 1.233,1.703 7.092,7.054 3.982,0.842 3.982,-1.21 3.224,-2.877 1.991,-0.518 4.389,-0.132 3.563,-1.062 0.554,-0.746 -0.192,-1.694 -0.769,-1.176 -0.939,-0.026 -0.871,0.272 -0.577,-0.246 -0.486,-3.846 z"
   id="Moravia_Silesia_Region"
   style="fill:none" />
<path
   class="st0"
   d="m 409.566,452.879 0.008,-0.041 0.272,-1.571 0.457,-0.996 0.406,-1.33 1.669,-4.207 0.527,-1.738 v -0.683 l 0.308,-0.758 0.5,-0.46 0.647,-0.168 0.746,0.126 0.798,0.415 0.801,0.699 2.066,3.267 0.64,0.362 0.62,-0.133 0.572,-0.469 0.885,-1.305 0.346,-0.721 0.758,-0.92 1.147,-0.906 0.693,-0.278 0.743,-0.044 0.765,0.278 3.285,2.854 0.637,0.214 0.678,-0.093 7.917,-7.184 3.078,-1.404 3.792,0.365 0.71,-0.365 0.539,-0.717 0.556,-2.336 0.426,-0.788 0.534,-0.466 0.577,-0.216 1.032,0.018 0.455,0.137 2.826,-3.506 0.81,-0.445 0.724,0.068 0.565,0.761 0.481,1.002 0.527,0.704 0.572,0.455 1.311,0.368 3.28,-0.137 0.678,-0.274 1.948,-1.463 0.488,-0.128 7.549,1.24 1.135,-0.399 0.911,-0.743 2.263,-3.372 0.447,-0.404 7.7,-2.477 2.388,-2.926 0.76,-1.635 0.178,-0.804 0.005,-0.775 -0.197,-0.729 -0.88,-2.144 -0.147,-0.75 0.01,-0.779 0.209,-0.814 0.459,-0.86 1.532,-1.846 0.488,-0.913 0.231,-0.869 -0.005,-0.803 -0.216,-0.715 -0.404,-0.605 -0.57,-0.473 -1.364,-0.694 -0.452,-0.615 -0.269,-0.806 -0.111,-0.947 0.159,-2.104 0.507,-2.045 0.394,-0.777 0.529,-0.505 2.309,-0.922 0.337,-0.36 0.125,-0.571 -0.07,-0.626 -0.18,-0.511 -0.772,-1.411 -0.19,-0.627 -0.084,-0.803 0.065,-1.04 0.243,-1.145 0.404,-1.072 1.15,-1.863 1.38,-1.392 9.547,-5.829 0.435,-0.817 0.118,-1.009 -0.135,-1.156 -2.061,-6.447 -0.219,-1.207 -0.245,-7.654 -0.635,-2.247 0.043,-0.782 0.301,-0.559 0.5,-0.375 3.275,-0.587 0.435,-0.526 0.313,-0.777 0.183,-0.945 0.048,-1.036 -0.091,-1.043 -0.238,-0.968 -0.385,-0.815 -3.011,-2.993 -0.281,-0.732 0.019,-0.88 1.361,-3.355 0.512,-1.947 0.243,-1.865 2.636,0.235 12.974,-1.262 0.967,-0.799 0.356,-0.688 0.204,-1.101 0.135,-1.414 0.56,-0.737 0.95,-0.396 5.844,-0.022 0.83,0.215 1.364,0.661 1,0.118 3.689,-0.267 2.732,0.254 2.561,0.896 5.485,2.776 1.188,-0.261 -0.44,2.046 -0.515,1.269 -0.592,0.647 -0.666,0.181 -3.477,-0.832 -0.777,0.248 -0.305,0.67 0.091,0.98 0.414,1.18 1.486,2.514 4.67,4.642 0.26,0.539 0.005,0.458 -0.291,0.358 -1.231,0.606 -0.238,0.691 0.058,0.945 0.284,1.13 2.717,6.939 0.14,0.952 -0.01,0.907 -0.168,0.863 -0.337,0.819 -0.517,0.774 -0.71,0.73 -0.481,0.748 0.087,0.815 0.534,0.859 5.952,4.617 0.935,-0.044 0.972,-0.431 0.967,-0.726 1.765,-1.953 1.275,-1.998 0.325,-0.944 0.084,-1.032 -0.111,-1.077 -0.26,-1.077 -0.774,-1.977 -1.996,-3.335 -0.164,-0.583 -0.072,-0.716 0.197,-2.008 0.406,-1.008 0.705,-0.587 0.928,-0.233 1.077,0.055 4.271,1.772 0.777,0.694 1.339,2.122 0.976,2.539 0.736,3.914 0.37,0.855 0.548,0.9 5.084,4.946 0.365,0.612 0.265,0.722 0.144,0.847 -0.166,3.274 0.334,0.932 0.623,0.755 1.823,1.068 4.093,1.273 2.227,2.145 2.054,3.053 1.303,3.026 0.19,1.217 -0.043,0.956 -0.12,0.787 -0.086,0.297 -0.106,0.368 -1.799,3.237 -0.257,1.082 0.099,1.401 0.967,3.275 1.486,3.098 1.4,1.952 2.871,1.702 0.462,0.477 0.382,0.664 0.286,0.913 0.067,0.972 -0.221,0.81 -0.452,0.667 -1.366,0.975 -2.965,1.1 -0.532,0.513 -2.835,4.052 -1.669,1.502 -0.2,0.784 0.241,0.784 0.582,0.74 0.827,0.652 2.003,0.864 1.902,0.026 5.334,-1.831 0.822,0.055 0.62,0.421 0.303,0.831 0.072,1.128 -0.289,5.171 0.216,0.882 0.44,0.64 0.599,0.53 4.502,2.106 6.772,1.404 0.522,0.355 0.416,0.647 0.563,1.747 0.346,2.397 3.877,1.644 1.958,1.578 1.183,1.809 0.707,0.418 0.808,0.089 0.856,-0.162 3.477,-1.884 3.227,0.435 2.516,1.008 0.414,0.413 0.717,1.197 0.544,1.548 0.341,1.723 0.332,0.735 0.702,0.505 5.93,1.76 1.039,0.735 0.851,1.05 0.717,1.32 1.048,2.938 0.812,3.746 -12.143,4.778 -4.004,-0.625 -3.348,-3.538 -1.595,-0.771 -2.602,0.763 -2.007,1.316 -2.133,1.399 -1.9,0.36 -12.488,-6.332 -5.26,-1.371 -4.898,1.046 -5.882,4.285 -0.995,1.542 -0.645,3.126 -1.572,1.995 -3.767,3.261 -2.692,4.585 -5.531,15.947 -1.256,2.3 -1.731,2.112 -0.271,3.135 -3.778,-4.393 -1.516,-10.937 -2.59,-3.64 -1.799,-0.137 -4.208,1.496 -2.104,0.256 -2.013,-0.752 -3.959,-2.624 -1.674,-0.573 -4.163,0.171 -1.742,-0.308 -1.437,-1.009 -0.792,-1.959 -0.407,-2.378 -0.86,-1.994 -2.093,-0.847 -2.025,-0.24 -6.538,-1.9 -1.866,-1.199 -1.007,-0.342 -1.007,0.137 -1.979,0.839 -1.131,0.051 -3.156,-0.462 -1.9,1.267 -5.554,9.514 -1.199,1.12 -1.719,0.504 -0.611,-0.197 -1.448,-1.18 -2.274,0.342 -0.124,0.111 -15.305,-2.266 -10.113,0.607 -5.803,-2.515 -11.006,-8.011 -0.158,-0.822 v -1.148 l -0.577,-0.711 -1.855,0.48 -0.113,-1.747 -0.814,-0.745 -1.233,-0.051 -1.38,0.326 1.12,-1.482 -0.916,0.06 -0.815,-0.368 -1.199,-0.874 -2.093,-0.154 -0.746,-0.317 -0.543,-0.849 -0.441,-2.04 -0.634,-0.48 -3.348,0.009 -0.95,0.232 -3.891,2.057 -1.844,0.583 h -2.523 l -2.455,-0.583 -8.495,-4.793 z"
   id="Southern_Moravia_Region"
   style="fill:none" />
<path
   class="st5"
   d="m 717.92,381.586 -4.048,3.171 -14.728,5.742 -3.224,3.051 -2.636,4.285 -2.047,5.094 -1.391,5.479 -0.396,4.476 0.019,1.004 0.14,7.449 -0.724,3.659 -2.274,3.847 -3.224,3.002 -3.631,1.668 -5.871,-0.456 -2.647,0.413 -2.296,1.479 -1.448,2.906 -0.679,2.466 -0.848,5.145 -0.894,2.275 -2.013,1.966 -2.093,0.12 -2.308,-0.395 -2.692,0.463 -1.765,1.467 -3.778,6.502 -1.934,1.603 -8.886,3.498 -0.812,-3.746 -1.048,-2.938 -0.717,-1.32 -0.851,-1.05 -1.039,-0.735 -5.93,-1.76 -0.702,-0.505 -0.332,-0.735 -0.341,-1.723 -0.544,-1.548 -0.717,-1.197 -0.414,-0.413 -2.516,-1.008 -3.227,-0.435 -3.477,1.884 -0.856,0.162 -0.808,-0.089 -0.707,-0.418 -1.183,-1.809 -1.958,-1.578 -3.877,-1.644 -0.346,-2.397 -0.563,-1.747 -0.416,-0.647 -0.522,-0.355 -6.772,-1.404 -4.502,-2.106 -0.599,-0.53 -0.44,-0.64 -0.216,-0.882 0.289,-5.171 -0.072,-1.128 -0.303,-0.831 -0.62,-0.421 -0.822,-0.055 -5.334,1.831 -1.902,-0.026 -2.003,-0.864 -0.827,-0.652 -0.582,-0.74 -0.241,-0.784 0.2,-0.784 1.669,-1.502 2.835,-4.052 0.532,-0.513 2.965,-1.1 1.366,-0.975 0.452,-0.667 0.221,-0.81 -0.067,-0.972 -0.286,-0.913 -0.382,-0.664 -0.462,-0.477 -2.871,-1.702 -1.4,-1.952 -1.486,-3.098 -0.967,-3.275 -0.099,-1.401 0.257,-1.082 1.799,-3.237 0.106,-0.368 0.11,0.269 0.486,0.867 0.351,0.406 0.423,0.285 0.486,0.086 0.548,-0.189 0.459,-0.533 0.277,-0.819 0.481,-3.077 0.298,-0.864 0.493,-0.599 0.762,-0.224 7.13,-0.175 0.443,0.086 0.356,-0.026 0.491,-0.243 0.358,-0.397 0.524,-0.822 0.594,-0.754 3.74,-3.604 0.373,-0.471 0.979,-2.017 -0.945,-1.182 -0.883,-2.863 0.171,-2.868 0.452,-2.694 2.054,0.267 0.683,0.079 1.686,0.632 2.698,2.31 2.313,1.26 0.967,0.191 4.699,2.117 1.125,0.221 0.647,-0.227 0.678,-0.596 0.543,-0.928 0.507,-1.116 0.527,-0.936 0.457,-0.573 0.56,-0.462 1.426,-0.811 1.888,-0.781 0.849,-0.212 7.794,0.157 0.781,-0.118 0.666,-0.273 0.476,-0.472 0.356,-0.512 0.221,-0.693 v -0.747 l -0.272,-1.075 -0.714,-1.694 -0.156,-0.677 0.202,-0.49 0.409,-0.347 1.328,-0.526 1.238,-0.16 1.664,0.07 9.615,1.945 2.946,-1.311 -0.308,-1.811 -0.038,-1.642 0.111,-0.827 0.236,-0.758 0.344,-0.576 0.399,-0.369 1.356,-0.753 0.44,-0.428 0.402,-0.665 0.702,-2.025 0.452,-0.757 0.522,-0.489 0.565,-0.238 0.582,-0.004 0.577,0.22 0.551,0.427 1.027,1.189 0.63,0.325 1.352,0.129 1.592,-0.395 1.64,-4.412 4.824,0.079 0.438,0.259 0.382,0.458 0.305,0.711 0.454,2.079 0.43,0.836 0.606,0.613 0.767,0.401 0.921,0.194 17.067,-1.687 1.027,0.421 3.297,2.341 0.741,0.273 8.313,-0.133 1.881,0.718 0.548,0.607 2.28,4.881 0.736,0.83 1.881,1.191 0.678,0.782 0.476,0.946 0.327,1.071 0.871,4.796 0.394,1.011 0.529,0.707 0.606,0.459 0.625,0.26 1.208,0.029 -0.202,5.926 z"
   id="Zlin_Region"
   style="fill:none" />
<path
   class="st1"
   d="m 502.352,336.734 -0.243,1.865 -0.512,1.947 -1.361,3.355 -0.019,0.88 0.281,0.732 3.011,2.993 0.385,0.815 0.238,0.968 0.091,1.043 -0.048,1.036 -0.183,0.945 -0.313,0.777 -0.435,0.526 -3.275,0.587 -0.5,0.375 -0.301,0.559 -0.043,0.782 0.635,2.247 0.245,7.654 0.219,1.207 2.061,6.447 0.135,1.156 -0.118,1.009 -0.435,0.817 -9.547,5.829 -1.38,1.392 -1.15,1.863 -0.404,1.072 -0.243,1.145 -0.065,1.04 0.084,0.803 0.19,0.627 0.772,1.411 0.18,0.511 0.07,0.626 -0.125,0.571 -0.337,0.36 -2.309,0.922 -0.529,0.505 -0.394,0.777 -0.507,2.045 -0.159,2.104 0.111,0.947 0.269,0.806 0.452,0.615 1.364,0.694 0.57,0.473 0.404,0.605 0.216,0.715 0.005,0.803 -0.231,0.869 -0.488,0.913 -1.532,1.846 -0.459,0.86 -0.209,0.814 -0.01,0.779 0.147,0.75 0.88,2.144 0.197,0.729 -0.005,0.775 -0.178,0.804 -0.76,1.635 -2.388,2.926 -7.7,2.477 -0.447,0.404 -2.263,3.372 -0.911,0.743 -1.135,0.399 -7.549,-1.24 -0.488,0.128 -1.948,1.463 -0.678,0.274 -3.28,0.137 -1.311,-0.368 -0.572,-0.455 -0.527,-0.704 -0.481,-1.002 -0.565,-0.761 -0.724,-0.068 -0.81,0.445 -2.826,3.506 -0.455,-0.137 -1.032,-0.018 -0.577,0.216 -0.534,0.466 -0.426,0.788 -0.556,2.336 -0.539,0.717 -0.71,0.365 -3.792,-0.365 -3.078,1.404 -7.917,7.184 -0.678,0.093 -0.637,-0.214 -3.285,-2.854 -0.765,-0.278 -0.743,0.044 -0.693,0.278 -1.147,0.906 -0.758,0.92 -0.346,0.721 -0.885,1.305 -0.572,0.469 -0.62,0.133 -0.64,-0.362 -2.066,-3.267 -0.801,-0.699 -0.798,-0.415 -0.746,-0.126 -0.647,0.168 -0.5,0.46 -0.308,0.758 -0.101,-0.588 -0.543,-0.855 -0.493,-0.473 -0.524,-0.334 -1.279,-0.276 -1.732,-0.137 -0.762,-0.172 -0.678,-0.47 -0.409,-0.742 -0.474,-1.128 -0.339,-0.408 -0.375,-0.155 h -0.344 l -0.204,-0.073 -0.147,-0.42 -0.089,-0.68 0.236,-1.333 0.204,-0.645 0.464,-0.662 3.561,-4.206 0.544,-1.11 0.238,-0.812 0.118,-1.193 0.12,-0.732 0.255,-0.666 0.289,-0.284 0.575,-0.108 2.417,-0.156 0.745,-0.185 0.56,-0.297 0.459,-0.353 0.286,-0.395 0.019,-0.449 -0.204,-0.595 -0.695,-0.921 -5.199,-5.127 -0.406,-0.275 -0.373,-0.026 -0.459,0.103 -4.247,1.698 -1.561,0.112 -5.163,-0.943 -0.493,0.022 -1.832,0.328 -0.51,-0.104 -0.406,-0.233 -5.197,-4.939 -0.544,-0.717 -0.356,-1.129 -0.272,-1.484 -0.221,-2.717 -0.44,-1.411 -0.611,-0.868 -0.94,-0.371 -5.327,-0.622 -1.246,-0.345 -0.457,-0.303 -5.752,-3.009 -0.681,-0.04 -0.608,0.187 -0.551,0.393 -1.914,2.911 -0.467,0.328 -0.476,0.02 -4.396,-2.863 -2.886,-3.842 -3.146,-2.094 -2.448,-2.393 -1.763,-1.022 -0.943,-0.092 -0.955,0.335 -1.881,1.738 -0.976,0.318 -1.003,-0.138 -2.075,-1.263 -4.107,-3.835 -0.572,-0.87 -0.313,-0.842 -0.115,-0.828 0.255,-3.453 -0.072,-0.808 -0.204,-0.585 -0.308,-0.44 -1.811,-1.758 -0.479,-0.806 -0.281,-1.027 0.024,-1.182 2.311,-9.109 0.089,-3.087 -0.293,-2.735 -1.63,-5.872 0.277,-0.665 0.63,-0.428 3.869,-1.123 0.753,-0.576 0.389,-0.748 0.007,-0.792 -0.274,-0.792 -0.452,-0.75 -1.558,-1.665 0.883,-0.375 1.279,-1.148 0.474,-0.821 0.305,-0.778 0.171,-0.566 0.356,-0.634 0.305,-0.331 2.104,-1.117 0.305,-0.361 0.101,-0.462 -0.236,-0.982 -0.07,-0.401 0.051,-0.444 0.188,-0.383 0.305,-0.287 0.51,-0.13 0.904,0.065 4.309,1.909 1.205,0.061 1.498,-0.19 2.58,-0.757 3.179,0.078 1.813,0.749 3.124,-0.488 8.578,-4.133 0.272,-2.038 -0.289,-1.842 -0.558,-1.466 -0.56,-0.918 -0.618,-0.702 -4.937,-3.694 -0.507,-0.689 -0.188,-0.732 0.322,-1.216 0.527,-0.929 2.494,-2.87 0.916,-1.307 0.272,-0.677 0.168,-0.675 0.137,-0.735 0.238,-0.714 0.356,-0.594 0.464,-0.562 0.457,-0.416 0.137,-0.07 0.745,-0.236 0.339,0.019 0.255,0.087 0.406,0.314 0.95,0.568 0.594,0.122 0.51,0.004 0.39,-0.104 4.485,-2.66 3.807,-1.496 3.903,-3.473 0.661,-0.375 0.414,-0.009 0.594,0.165 1.799,0.254 1.474,-0.267 0.933,-0.453 0.628,-0.572 0.409,-0.63 0.26,-0.708 0.418,-2.709 0.176,-0.708 0.221,-0.682 0.185,-0.401 0.339,-0.591 0.392,-0.576 0.813,-0.863 0.356,-0.244 1.138,-0.411 0.409,-0.459 0.151,-0.854 -0.034,-1.786 0.084,-1.399 4.74,3.14 2.107,2.486 2.821,4.601 1.159,1.288 0.637,0.34 8.342,-0.673 1.914,0.528 4.992,3.901 2.934,0.698 1.52,0.951 0.587,0.654 0.394,0.772 0.236,1.704 0.267,0.583 0.421,0.419 2.833,1.38 1.784,1.423 1.498,2.02 1.724,3.493 2.77,0.74 0.784,-0.397 0.952,-0.087 1.491,0.645 1.205,0.336 1.02,-0.013 1.068,-0.671 1.686,-1.915 0.527,-0.293 1.222,-0.443 0.507,-0.384 0.392,-0.664 0.524,-1.361 0.255,-0.436 0.459,-0.419 0.661,0.009 0.745,0.306 1.534,1.046 1.477,0.746 1.628,0.577 2.518,0.536 1.222,0.671 0.779,0.79 0.322,0.864 0.356,0.745 0.815,0.584 1.193,0.271 2.359,-0.232 2.816,0.132 2.212,0.665 3.223,1.621 4.112,2.729 1.426,1.202 0.984,1.228 0.695,1.254 0.77,1.111 1.171,0.837 3.853,1.405 4.485,2.894 z"
   id="Vysocina_Region"
   style="fill:none" />
<path
   class="st7"
   d="m 403.086,289.743 -0.084,1.399 0.034,1.786 -0.151,0.854 -0.409,0.459 -1.138,0.411 -0.356,0.244 -0.813,0.863 -0.392,0.576 -0.339,0.591 -0.185,0.401 -0.221,0.682 -0.176,0.708 -0.418,2.709 -0.26,0.708 -0.409,0.63 -0.628,0.572 -0.933,0.453 -1.474,0.267 -1.799,-0.254 -0.594,-0.165 -0.414,0.009 -0.661,0.375 -3.903,3.473 -3.807,1.496 -4.485,2.66 -0.39,0.104 -0.51,-0.004 -0.594,-0.122 -0.95,-0.568 -0.406,-0.314 -0.255,-0.087 -0.339,-0.019 -0.745,0.236 -0.137,0.07 -0.457,0.416 -0.464,0.562 -0.356,0.594 -0.238,0.714 -0.137,0.735 -0.168,0.675 -0.272,0.677 -0.916,1.307 -2.494,2.87 -0.527,0.929 -0.322,1.216 0.188,0.732 0.507,0.689 4.937,3.694 0.618,0.702 0.56,0.918 0.558,1.466 0.289,1.842 -0.272,2.038 -8.578,4.133 -3.124,0.488 -1.813,-0.749 -3.179,-0.078 -2.58,0.757 -1.498,0.19 -1.205,-0.061 -4.309,-1.909 -0.904,-0.065 -0.51,0.13 -0.305,0.287 -0.188,0.383 -0.051,0.444 0.07,0.401 0.236,0.982 -0.101,0.462 -0.305,0.361 -2.104,1.117 -0.305,0.331 -0.356,0.634 -0.171,0.566 -0.305,0.778 -0.474,0.821 -1.279,1.148 -0.883,0.375 -0.712,0.103 -0.51,-0.2 -0.491,-0.312 -0.51,-0.453 -0.56,-0.617 -0.457,-0.688 -0.339,-0.75 -0.339,-1.067 -0.262,-0.547 -0.729,-0.47 -1.323,-0.47 -2.104,0.383 -1.104,-0.104 -0.56,-0.349 -0.051,-1.087 -0.067,-0.451 -0.373,-0.636 -0.601,-0.512 -3.239,-0.992 -0.577,-0.331 -0.356,-0.366 -0.782,-1.069 -0.599,-0.637 -0.423,-0.094 -0.527,0.183 -1.342,1.156 -0.339,0.4 -0.457,0.679 -0.678,1.384 -0.103,0.479 -0.067,0.522 -0.272,4.41 -0.695,1.042 -1.534,1.214 -3.545,0.76 -0.748,0.347 -1.599,1.652 -2.614,1.642 -1.188,0.347 -1.169,0.157 -2.602,-0.417 -0.188,-0.19 -0.051,-0.427 0.034,-0.469 0.101,-0.504 -1.339,-0.36 -12.159,0.491 -2.054,-0.27 -1.82,-1.009 -1.46,-0.364 -1.359,0.061 -0.899,0.199 -5.13,2.88 -1.118,0.131 -0.832,-0.074 -0.493,-0.174 -0.322,-0.17 -0.272,-0.209 -0.243,-0.235 -0.527,-0.768 -0.219,-0.392 -0.459,-0.543 -0.39,-0.273 -0.527,-0.199 -0.423,-0.07 -0.305,-0.122 -0.238,-0.251 -0.221,-0.44 -0.406,-1.099 -0.356,-0.373 -0.577,-0.309 -1.306,-0.338 -1.753,-0.013 -1.308,0.248 -0.524,0.168 -0.459,0.314 -1.974,1.981 -2.172,0.887 -6.385,0.839 -2.903,-0.109 -1.414,-0.495 -2.035,-0.161 -0.645,-0.212 -1.342,-1.06 -1.101,-0.601 -0.837,-0.094 -0.782,0.139 -1.222,0.66 -0.712,0.591 -0.527,1.147 -0.594,1.938 -0.272,0.321 -0.356,0.279 -5.283,1.649 -0.83,0.426 -0.594,0.451 -1.958,1.017 -1.138,0.129 -0.916,-0.109 -1.984,-1.141 -0.618,-0.452 -0.611,-0.225 -0.729,-0.164 -2.292,-0.083 -0.611,-0.205 -1.272,-0.885 -0.515,-0.131 -0.628,0.078 -6.351,3.726 -0.017,-1.532 0.137,-0.585 0.209,-0.469 0.474,-1.468 0.322,-1.635 v -0.981 l -0.243,-1.173 -0.745,-1.138 -1.053,-1.288 -0.373,-0.773 -0.272,-1.009 -0.151,-1.73 0.101,-4.167 -0.204,-0.94 -0.423,-0.834 -0.967,-1.136 -0.731,-0.518 -0.544,-0.27 -0.49,-0.165 -0.548,-0.376 -0.442,-0.609 -0.255,-1.298 0.103,-0.6 0.288,-0.435 0.645,-0.557 0.192,-0.444 -0.067,-0.415 -0.272,-0.439 -1.414,-0.863 -0.017,-0.226 0.661,-0.557 0.883,-0.515 0.175,-0.493 -0.142,-0.606 -1.664,-1.499 -0.44,-0.697 0.289,-0.797 0.594,-0.799 1.294,-1.251 1.238,-0.78 1.376,-0.575 3.206,-0.797 0.839,-0.419 0.846,-0.786 2.715,-3.04 0.356,-0.742 -0.017,-0.514 -0.272,-0.577 -0.779,-0.453 -1.07,-0.429 -0.272,-0.243 -0.152,-0.438 0.034,-1.002 0.188,-0.856 1.085,-3.74 0.067,-0.851 -0.118,-0.721 -0.255,-1.005 -0.067,-0.595 v -0.472 l 1.376,-3.453 0.118,-0.463 0.101,-0.656 0.034,-0.76 -0.067,-1.462 0.034,-0.731 0.238,-0.564 0.238,-0.249 0.322,-0.084 1.058,-0.104 0.594,-0.18 0.457,-0.214 0.272,-0.175 0.118,-0.301 0.053,-0.45 -0.12,-0.824 -1.068,-3.623 -0.188,-0.858 -0.034,-0.719 0.067,-0.735 0.171,-0.596 -0.459,-0.81 -0.971,-1.028 -5.74,-2.927 -0.238,-0.768 -0.104,-0.661 -0.457,-0.622 -0.695,-0.447 -3.648,-1.113 -0.618,-0.343 -0.745,-0.639 -2.867,-3.157 -0.952,-0.632 -1.186,-0.548 -2.061,-0.578 -1.085,-0.08 -0.883,0.075 -1.477,0.347 -1.527,0.146 -1.958,-0.246 -0.967,-0.606 -5.315,-5.126 -1.902,-0.922 -1.804,-0.42 -1.443,-0.562 -0.628,-0.019 -0.56,0.176 -2.222,1.24 -1.188,0.297 -0.548,0.028 -0.611,-0.08 -0.544,-0.228 -0.406,-0.526 -0.017,-0.73 0.459,-1.221 0.44,-0.894 0.322,-0.835 0.051,-0.913 -0.051,-0.738 -1.306,-3.403 1.135,-1.626 1.38,-0.712 1.698,-0.465 1.085,-0.555 2.806,-2.814 1.272,-0.862 1.053,-1.319 1.051,-2.522 1.46,-2.319 0.611,-0.687 1.277,-0.732 6.404,-2.655 4.682,-3.053 1.024,-1.074 0.373,-0.318 0.796,-0.485 0.933,-0.307 1.205,0.017 0.68,0.176 0.678,0.335 0.457,0.15 h 0.544 l 1.924,-0.512 10.43,-5.431 0.933,-0.081 0.883,0.381 0.712,0.529 0.832,0.309 0.762,-0.124 1.222,-0.966 0.628,-0.649 0.685,-0.936 0.661,-0.75 6.486,-4.068 1.036,-0.415 1.477,0.098 0.916,-0.088 0.846,-0.345 0.652,-1.006 0.221,-0.636 0.034,-0.573 -0.142,-1.087 0.022,-0.725 0.12,-0.945 0.255,-0.742 0.457,-0.732 0.849,-0.398 1.323,-0.31 4.572,-0.15 2.679,0.526 2.568,0.932 2.205,0.274 8.626,-1.475 3.569,1.334 0.56,-0.133 0.796,-0.389 2.364,-1.974 0.916,-0.596 0.849,-0.248 3.088,-0.255 1.924,0.132 0.849,-0.18 0.863,-0.473 0.866,-1.299 0.375,-0.859 0.236,-0.716 0.188,-0.397 0.527,-0.788 0.101,-0.416 v -0.637 l -0.154,-0.574 -0.406,-1.217 -0.135,-0.553 0.017,-0.585 0.118,-1.097 -0.051,-0.672 -0.171,-0.655 -0.507,-1.515 -0.154,-0.691 0.103,-0.681 0.406,-0.337 0.883,0.16 1.448,0.661 0.577,0.154 0.577,0.053 0.645,-0.275 0.95,-0.557 3.189,-2.662 0.89,-0.473 0.695,-0.514 0.168,-0.341 0.171,-0.429 0.373,-1.33 0.137,-1.396 v -1.049 l 0.118,-0.784 0.154,-0.59 0.322,-0.665 0.406,-0.611 0.746,-0.524 1.188,-0.345 4.877,-0.117 2.075,0.337 1.679,-0.115 0.765,0.115 0.491,0.249 0.221,0.42 0.204,0.501 0.084,0.417 0.067,0.492 0.051,0.554 0.137,0.488 0.255,0.4 0.305,0.22 0.95,0.128 1.905,-0.164 9.814,-2.557 4.434,-2.962 4.009,-1.903 0.967,-0.736 1.289,-1.277 0.832,-0.577 1.82,-0.985 0.916,-0.817 0.782,-0.968 1.154,-2.299 0.44,-0.67 0.697,-0.785 2.256,-1.911 0.633,-0.786 1.275,-2.066 0.406,-0.497 0.527,-0.249 0.628,0.036 1.068,0.444 0.899,0.026 1.243,-0.569 0.798,-0.204 0.765,0.115 1.051,0.88 0.899,0.427 2.619,-0.187 0.56,0.161 0.577,0.391 2.085,2.478 0.664,0.631 0.813,0.302 0.736,0.16 2.833,-0.755 0.967,5.042 1.154,2.123 3.891,3.495 0.221,0.656 -0.034,0.639 -0.339,0.607 -0.356,0.545 -0.087,0.089 -0.373,0.892 -0.067,1.357 0.289,1.023 0.745,1.355 0.356,0.793 0.221,0.74 1,6.922 0.087,1.679 -0.171,1.406 -0.373,0.965 -0.933,1.717 -0.95,1.29 -0.289,0.827 -0.356,1.376 -0.154,2.519 0.154,1.131 0.236,0.637 0.289,0.212 5.418,2.333 0.681,0.449 0.678,0.655 0.933,1.514 0.407,1.348 0.305,1.96 0.375,0.908 0.592,0.653 0.63,0.244 0.796,0.075 0.77,-0.062 2.02,-0.45 1,0.079 2.992,0.715 4.48,-0.582 0.796,0.056 0.736,0.313 0.899,0.822 0.493,0.993 0.322,0.966 0.406,2.92 0.017,2.31 0.255,1.402 0.474,1.816 1.681,4.846 0.221,0.951 -0.07,0.423 -0.135,0.388 -0.135,0.335 -0.459,0.678 -1.782,1.85 -0.168,0.509 -0.034,0.882 0.269,0.537 0.305,0.395 1.748,1.214 0.837,0.829 1.053,1.27 1.44,2.143 0.426,1.064 0.067,0.703 -0.322,0.479 -1.799,1.746 -0.255,0.501 -0.125,0.568 v 0.895 l 0.125,0.858 0.409,1.924 0.034,0.588 -0.051,0.598 -0.204,1.748 -0.974,-0.043 -2.227,0.562 -2.025,0.982 -0.531,0.827 1.255,2.01 0.796,0.808 2.564,1.659 3.72,1.211 0.765,0.5 3.992,3.842 0.883,0.632 1.443,0.412 0.762,0.393 0.798,0.658 1.024,1.219 0.152,0.837 -0.238,0.85 -0.289,0.609 -0.135,0.496 -0.067,0.732 -0.07,3.39 -0.123,0.929 -0.255,0.989 -0.544,1.607 -0.44,1.748 z m -98.163,-20.259 3.978,-0.194 2.443,-0.623 0.645,-1.218 0.135,-0.379 0.034,-0.429 -0.034,-0.373 -0.202,-0.549 -0.238,-0.513 -0.221,-0.607 -0.084,-0.435 0.152,-1.518 -0.067,-0.558 -0.118,-0.47 -0.51,-1.027 -0.118,-0.329 0.017,-0.276 0.135,-0.344 0.339,-0.487 3.044,-3 0.916,-1.213 0.253,-0.617 0.053,-0.54 -0.154,-0.852 -0.474,-0.819 -0.628,-0.531 -2.297,-0.748 -0.748,-0.417 -0.373,-0.344 -0.39,-0.514 -0.373,-0.739 -0.731,-1.051 -0.406,-0.344 -0.409,-0.238 -2.566,-0.681 -0.815,-0.396 -0.474,-0.713 -0.375,-1.091 -0.474,-0.644 -1.359,-0.977 -1.746,-1.83 -0.568,-0.414 -0.695,-0.29 -1.188,-0.23 -5.401,0.625 -14.4,4.19 -0.457,0.326 -0.255,0.458 -0.084,0.563 0.101,0.66 0.171,0.606 0.05,0.52 -0.154,0.423 -0.44,0.505 -0.611,0.352 -0.628,0.155 -0.543,-0.103 -2.72,-1.113 -0.645,-0.082 -0.661,0.082 -5.182,1.905 -2.071,1.21 -0.252,0.28 -0.12,0.264 -0.034,0.228 -0.022,0.265 0.176,0.316 0.339,0.396 2.018,1.226 0.628,0.553 0.289,0.321 0.171,0.338 -0.051,0.396 -0.137,0.404 -0.305,0.68 -0.151,0.432 -0.103,0.413 v 0.465 l 0.12,0.387 0.339,0.506 2.698,3.376 0.293,0.493 0.493,1.079 0.577,2.029 0.236,0.588 0.238,0.442 0.272,0.396 2.953,3.41 0.289,0.656 0.118,0.606 -0.067,1.184 -0.067,0.516 -0.07,1.141 0.103,0.982 0.151,0.27 0.192,0.194 0.284,0.211 0.361,0.153 1.205,0.207 4.588,-1.877 7.861,-1.394 4.891,-1.557 0.661,-0.38 1.611,-1.518 1.765,-1.307 1.07,-0.315 0.733,-0.106 0.289,0.035 0.221,0.097 0.322,0.192 1.544,0.412 z"
   id="Central_Bohemia_Region"
   style="fill:none" />
<path
   class="st6"
   d="m 304.923,269.484 -1.9,-0.194 -1.544,-0.412 -0.322,-0.192 -0.221,-0.097 -0.289,-0.035 -0.733,0.106 -1.07,0.315 -1.765,1.307 -1.611,1.518 -0.661,0.38 -4.891,1.557 -7.861,1.394 -4.588,1.877 -1.205,-0.207 -0.361,-0.153 -0.284,-0.211 -0.192,-0.194 -0.151,-0.27 -0.103,-0.982 0.07,-1.141 0.067,-0.516 0.067,-1.184 -0.118,-0.606 -0.289,-0.656 -2.953,-3.41 -0.272,-0.396 -0.238,-0.442 -0.236,-0.588 -0.577,-2.029 -0.493,-1.079 -0.293,-0.493 -2.698,-3.376 -0.339,-0.506 -0.12,-0.387 v -0.465 l 0.103,-0.413 0.151,-0.432 0.305,-0.68 0.137,-0.404 0.051,-0.396 -0.171,-0.338 -0.289,-0.321 -0.628,-0.553 -2.018,-1.226 -0.339,-0.396 -0.176,-0.316 0.022,-0.265 0.034,-0.228 0.12,-0.264 0.252,-0.28 2.071,-1.21 5.182,-1.905 0.661,-0.082 0.645,0.082 2.72,1.113 0.543,0.103 0.628,-0.155 0.611,-0.352 0.44,-0.505 0.154,-0.423 -0.05,-0.52 -0.171,-0.606 -0.101,-0.66 0.084,-0.563 0.255,-0.458 0.457,-0.326 14.4,-4.19 5.401,-0.625 1.188,0.23 0.695,0.29 0.568,0.414 1.746,1.83 1.359,0.977 0.474,0.644 0.375,1.091 0.474,0.713 0.815,0.396 2.566,0.681 0.409,0.238 0.406,0.344 0.731,1.051 0.373,0.739 0.39,0.514 0.373,0.344 0.748,0.417 2.297,0.748 0.628,0.531 0.474,0.819 0.154,0.852 -0.053,0.54 -0.253,0.617 -0.916,1.213 -3.044,3 -0.339,0.487 -0.135,0.344 -0.017,0.276 0.118,0.329 0.51,1.027 0.118,0.47 0.067,0.558 -0.152,1.518 0.084,0.435 0.221,0.607 0.238,0.513 0.202,0.549 0.034,0.373 -0.034,0.429 -0.135,0.379 -0.645,1.218 -2.443,0.623 z"
   id="City_of_Prague"
   style="fill:none" />

</svg>
   