<?xml version="1.0" encoding="UTF-8" standalone="no"?>
<!--
************* Copyright (c) 2017 Pareto Softare, LLC DBA Simplemaps.com *******************		
************* Free for Commercial Use, full terms at  http://simplemaps.com/resources/svg-license ************
************* Attribution is appreciated! http://simplemaps.com ***************************
-->

<svg
   xmlns:dc="http://purl.org/dc/elements/1.1/"
   xmlns:cc="http://creativecommons.org/ns#"
   xmlns:rdf="http://www.w3.org/1999/02/22-rdf-syntax-ns#"
   xmlns:svg="http://www.w3.org/2000/svg"
   xmlns="http://www.w3.org/2000/svg"
   xmlns:sodipodi="http://sodipodi.sourceforge.net/DTD/sodipodi-0.dtd"
   xmlns:inkscape="http://www.inkscape.org/namespaces/inkscape"
   enable_background="new 0 0 1000 589"
   height="589px"
   pretty_print="False"
   style="stroke-linejoin: round; stroke:#000; fill: none;"
   version="1.1"
   viewBox="0 0 1000 589"
   width="1000px"
   id="svg"
   inkscape:version="0.48.4 r9939"
   sodipodi:docname="us.svg">
  <sodipodi:namedview
     pagecolor="#ffffff"
     bordercolor="#666666"
     borderopacity="1"
     objecttolerance="10"
     gridtolerance="10"
     guidetolerance="10"
     inkscape:pageopacity="0"
     inkscape:pageshadow="2"
     inkscape:window-width="1920"
     inkscape:window-height="1137"
     id="namedview69"
     showgrid="false"
     inkscape:zoom="0.80893016"
     inkscape:cx="817.66365"
     inkscape:cy="409.3738"
     inkscape:window-x="1192"
     inkscape:window-y="118"
     inkscape:window-maximized="1"
     inkscape:current-layer="svg2" />
  <defs
     id="defs4">
    <style
       type="text/css"
       id="style6">path { fill-rule: evenodd; }</style>
  </defs>
  <metadata
     id="metadata8">
    <views
       id="views10">
      <view
         h="589.235294118"
         padding="0"
         w="1000"
         id="view12">
        <proj
           id="laea-usa"
           lat0="45"
           lon0="-100" />
        <bbox
           h="321.97"
           w="589.33"
           x="690.09"
           y="918.69"
           id="bbox15" />
      </view>
    </views>
    <rdf:RDF>
      <cc:Work
         rdf:about="">
        <dc:format>image/svg+xml</dc:format>
        <dc:type
           rdf:resource="http://purl.org/dc/dcmitype/StillImage" />
        <dc:title />
      </cc:Work>
    </rdf:RDF>
  </metadata>
  <path
     inkscape:connector-curvature="0"
     id="MA"
     data-name="Massachusetts"
     data-id="MA"
     d="m 956.31178,153.05085 -0.29118,-0.19412 0,0.29119 0.29118,-0.0971 z m -2.91189,-2.6207 0.67944,-0.29119 0,-0.38825 -0.67944,0.67944 z m 12.03583,-7.57092 -0.0971,-1.35889 -0.19412,-0.7765 0.29119,2.13539 z m -42.41659,-9.9975 -0.67944,0.29119 -5.5326,1.65007 -1.94126,0.67944 -2.23245,0.67944 -0.7765,0.29119 0,0.29119 0.29118,5.04728 0.29119,4.65903 0.29119,4.27078 0.48532,0.29119 1.74714,-0.48532 7.86211,-2.32951 0.19412,0.48531 13.97709,-5.33847 0.0971,0.19413 1.26182,-0.48532 4.4649,-1.74713 4.27078,5.14434 0,0 0.58238,-0.48531 0.29119,-1.45595 -0.0971,2.32952 0,0 0.97063,0 0.29119,1.16475 0.87357,1.65008 0,0 4.56197,-5.5326 3.78546,1.26182 0.87357,-1.94126 6.21204,-3.30015 -2.62071,-5.14435 0.67945,3.30015 -3.20309,2.42658 -3.59133,0.29119 -7.18267,-7.66799 -3.20309,-4.85315 3.20309,-3.39721 -3.30015,-0.19413 -1.35888,-3.20308 -0.0971,-0.19413 -5.53259,6.01791 -12.22996,4.07666 -3.97959,1.26182 0,0 z"
     style="stroke-width:0.97063118000000004;fill:#f9f9f9" />
</svg>
